HIERARCHY
ROOT Hips
{
  OFFSET 5.84602e-005 68.8428 3.50346
  CHANNELS 6 Xposition Yposition Zposition Zrotation Xrotation Yrotation
  JOINT Spine
  {
    OFFSET 0 8.597 -4.6522
    CHANNELS 3 Zrotation Xrotation Yrotation
    JOINT Spine1
    {
      OFFSET 0 7.8454 0.4098
      CHANNELS 3 Zrotation Xrotation Yrotation
      JOINT Spine2
      {
        OFFSET 0 9.7078 -2.1609
        CHANNELS 3 Zrotation Xrotation Yrotation
        JOINT Neck
        {
          OFFSET 0 21.8761 -0.4549
          CHANNELS 3 Zrotation Xrotation Yrotation
          JOINT Head
          {
            OFFSET 0 12.3537 3.3602
            CHANNELS 3 Zrotation Xrotation Yrotation
            End Site
            {
              OFFSET 0.0001 18.9506 0.5657
            }
          }
        }
        JOINT LeftShoulder
        {
          OFFSET 2.2086 21.1115 7.2329
          CHANNELS 3 Zrotation Xrotation Yrotation
          JOINT LeftArm
          {
            OFFSET 13.1193 3.0282 -4.8998
            CHANNELS 3 Zrotation Xrotation Yrotation
            JOINT LeftForeArm
            {
              OFFSET 27.4081 -0.0973053 -0.2375
              CHANNELS 3 Zrotation Xrotation Yrotation
              JOINT LeftHand
              {
                OFFSET 22.8641 0.0662994 -0.1369
                CHANNELS 3 Zrotation Xrotation Yrotation
                JOINT LeftHandIndex1
                {
                  OFFSET 8.8614 0.775009 2.4612
                  CHANNELS 3 Zrotation Xrotation Yrotation
                  JOINT LeftHandIndex2
                  {
                    OFFSET 3.3146 -0.808304 0.5841
                    CHANNELS 3 Zrotation Xrotation Yrotation
                    JOINT LeftHandIndex3
                    {
                      OFFSET 2.2628 -0.552002 0.3989
                      CHANNELS 3 Zrotation Xrotation Yrotation
                      End Site
                      {
                        OFFSET 1.6102 -0.4807 0.2612
                      }
                    }
                  }
                }
                JOINT LeftHandMiddle1
                {
                  OFFSET 8.9937 0.895004 0.2143
                  CHANNELS 3 Zrotation Xrotation Yrotation
                  JOINT LeftHandMiddle2
                  {
                    OFFSET 4.0984 0.0113983 -0.0242
                    CHANNELS 3 Zrotation Xrotation Yrotation
                    JOINT LeftHandMiddle3
                    {
                      OFFSET 2.2716 0.00689697 -0.0138001
                      CHANNELS 3 Zrotation Xrotation Yrotation
                      End Site
                      {
                        OFFSET 2.0404 -0.1441 0.0027
                      }
                    }
                  }
                }
                JOINT LeftHandRing1
                {
                  OFFSET 8.5234 0.597198 -2.0164
                  CHANNELS 3 Zrotation Xrotation Yrotation
                  JOINT LeftHandRing2
                  {
                    OFFSET 3.7188 -0.188293 -0.2328
                    CHANNELS 3 Zrotation Xrotation Yrotation
                    JOINT LeftHandRing3
                    {
                      OFFSET 2.1191 -0.106598 -0.1332
                      CHANNELS 3 Zrotation Xrotation Yrotation
                      End Site
                      {
                        OFFSET 1.8737 -0.2304 -0.0886
                      }
                    }
                  }
                }
                JOINT LeftHandPinky1
                {
                  OFFSET 7.9094 -0.601089 -3.4825
                  CHANNELS 3 Zrotation Xrotation Yrotation
                  JOINT LeftHandPinky2
                  {
                    OFFSET 2.2874 -0.477005 -0.6314
                    CHANNELS 3 Zrotation Xrotation Yrotation
                    JOINT LeftHandPinky3
                    {
                      OFFSET 1.6774 -0.349396 -0.4633
                      CHANNELS 3 Zrotation Xrotation Yrotation
                      End Site
                      {
                        OFFSET 1.4888 -0.4091 -0.3416
                      }
                    }
                  }
                }
                JOINT LeftHandThumb1
                {
                  OFFSET 1.833 -1.3875 1.3896
                  CHANNELS 3 Zrotation Xrotation Yrotation
                  JOINT LeftHandThumb2
                  {
                    OFFSET 3.4129 -1.121 2.5732
                    CHANNELS 3 Zrotation Xrotation Yrotation
                    JOINT LeftHandThumb3
                    {
                      OFFSET 2.2474 -0.804199 1.6192
                      CHANNELS 3 Zrotation Xrotation Yrotation
                      End Site
                      {
                        OFFSET 1.6527 -0.5689 1.1317
                      }
                    }
                  }
                }
              }
            }
          }
        }
        JOINT RightShoulder
        {
          OFFSET -2.2086 21.1115 7.2329
          CHANNELS 3 Zrotation Xrotation Yrotation
          JOINT RightArm
          {
            OFFSET -13.1216 3.0287 -4.9007
            CHANNELS 3 Zrotation Xrotation Yrotation
            JOINT RightForeArm
            {
              OFFSET -27.4081 -0.0973053 -0.2375
              CHANNELS 3 Zrotation Xrotation Yrotation
              JOINT RightHand
              {
                OFFSET -22.8641 0.0664063 -0.1369
                CHANNELS 3 Zrotation Xrotation Yrotation
                JOINT RightHandIndex1
                {
                  OFFSET -8.8614 0.774994 2.4612
                  CHANNELS 3 Zrotation Xrotation Yrotation
                  JOINT RightHandIndex2
                  {
                    OFFSET -3.3146 -0.808304 0.5841
                    CHANNELS 3 Zrotation Xrotation Yrotation
                    JOINT RightHandIndex3
                    {
                      OFFSET -2.2628 -0.552002 0.3989
                      CHANNELS 3 Zrotation Xrotation Yrotation
                      End Site
                      {
                        OFFSET -1.6102 -0.4807 0.2612
                      }
                    }
                  }
                }
                JOINT RightHandMiddle1
                {
                  OFFSET -8.9937 0.894989 0.2143
                  CHANNELS 3 Zrotation Xrotation Yrotation
                  JOINT RightHandMiddle2
                  {
                    OFFSET -4.0984 0.0113983 -0.0242
                    CHANNELS 3 Zrotation Xrotation Yrotation
                    JOINT RightHandMiddle3
                    {
                      OFFSET -2.2716 0.00691223 -0.0138001
                      CHANNELS 3 Zrotation Xrotation Yrotation
                      End Site
                      {
                        OFFSET -2.0404 -0.1441 0.0027
                      }
                    }
                  }
                }
                JOINT RightHandRing1
                {
                  OFFSET -8.5234 0.597198 -2.0164
                  CHANNELS 3 Zrotation Xrotation Yrotation
                  JOINT RightHandRing2
                  {
                    OFFSET -3.7188 -0.188309 -0.2328
                    CHANNELS 3 Zrotation Xrotation Yrotation
                    JOINT RightHandRing3
                    {
                      OFFSET -2.1191 -0.106598 -0.1332
                      CHANNELS 3 Zrotation Xrotation Yrotation
                      End Site
                      {
                        OFFSET -1.8737 -0.2304 -0.0886
                      }
                    }
                  }
                }
                JOINT RightHandPinky1
                {
                  OFFSET -7.9094 -0.601105 -3.4825
                  CHANNELS 3 Zrotation Xrotation Yrotation
                  JOINT RightHandPinky2
                  {
                    OFFSET -2.2874 -0.477005 -0.6314
                    CHANNELS 3 Zrotation Xrotation Yrotation
                    JOINT RightHandPinky3
                    {
                      OFFSET -1.6774 -0.349396 -0.4633
                      CHANNELS 3 Zrotation Xrotation Yrotation
                      End Site
                      {
                        OFFSET -1.4888 -0.4091 -0.3416
                      }
                    }
                  }
                }
                JOINT RightHandThumb1
                {
                  OFFSET -1.833 -1.38751 1.3896
                  CHANNELS 3 Zrotation Xrotation Yrotation
                  JOINT RightHandThumb2
                  {
                    OFFSET -3.41299 -1.12099 2.5732
                    CHANNELS 3 Zrotation Xrotation Yrotation
                    JOINT RightHandThumb3
                    {
                      OFFSET -2.24741 -0.804108 1.6192
                      CHANNELS 3 Zrotation Xrotation Yrotation
                      End Site
                      {
                        OFFSET -1.6527 -0.5689 1.1317
                      }
                    }
                  }
                }
              }
            }
          }
        }
      }
    }
  }
  JOINT RightUpLeg
  {
    OFFSET -9.1966 3.8861 -0.7581
    CHANNELS 3 Zrotation Xrotation Yrotation
    JOINT RightLeg
    {
      OFFSET -0.7359 -41.0265 0
      CHANNELS 3 Zrotation Xrotation Yrotation
      JOINT RightFoot
      {
        OFFSET 0 -40.2855 0
        CHANNELS 3 Zrotation Xrotation Yrotation
        JOINT RightToeBase
        {
          OFFSET 0 -5.6122 11.7359
          CHANNELS 3 Zrotation Xrotation Yrotation
          End Site
          {
            OFFSET 0 0 7.8731
          }
        }
      }
    }
  }
  JOINT LeftUpLeg
  {
    OFFSET 9.1965 3.8864 -0.7581
    CHANNELS 3 Zrotation Xrotation Yrotation
    JOINT LeftLeg
    {
      OFFSET 0.7359 -41.0268 0
      CHANNELS 3 Zrotation Xrotation Yrotation
      JOINT LeftFoot
      {
        OFFSET 0 -40.2855 0
        CHANNELS 3 Zrotation Xrotation Yrotation
        JOINT LeftToeBase
        {
          OFFSET 0 -5.6122 11.7359
          CHANNELS 3 Zrotation Xrotation Yrotation
          End Site
          {
            OFFSET 0 0 7.8731
          }
        }
      }
    }
  }
}
MOTION
Frames:	4
Frame Time:	0.0333333
5.84602e-005 68.8428 3.50346 0 0 -0 0 0 -0 0 0 -0 0 0 -0 0.0016974 0 -0 1.94126e-019 0 -0 0.0016974 0 -0 1.94126e-019 0 -0 1.94126e-019 0 -0 1.94126e-019 0 -0 1.94126e-019 0 -0 1.94126e-019 0 -0 1.94126e-019 0 -0 1.94126e-019 0 -0 -0.014636 -8.89143e-005 -2.60902e-007 -4.19051e-019 1.21329e-020 -4.7394e-023 1.94126e-019 0 -0 -0.0187551 -0.00117593 5.86149e-005 -2.13556e-018 -5.82377e-019 2.42657e-020 1.94126e-019 0 -0 -0.012339 -0.00326664 0.00067862 7.15412e-019 -7.76503e-019 9.70628e-020 1.94126e-019 0 -0 1.94126e-019 0 -0 1.94126e-019 0 -0 0.0016974 0 -0 1.94126e-019 0 -0 1.94126e-019 0 -0 1.94126e-019 0 -0 1.94126e-019 0 -0 1.94126e-019 0 -0 1.94126e-019 0 -0 1.94126e-019 0 -0 0.0149702 -9.09441e-005 2.8968e-007 -2.90777e-018 2.42657e-020 -4.7394e-023 1.94126e-019 0 -0 0.0189971 -0.00119108 -5.98315e-005 5.40731e-018 3.88251e-019 3.63986e-020 1.94126e-019 0 -0 0.0121982 -0.00322931 -0.000670484 7.03546e-019 0 -0 1.94126e-019 0 -0 1.94126e-019 0 -0 1.94126e-019 0 -0 3.39842 1.33031 -0.0637918 -5.65207e-008 0.834868 -0.000436188 -3.39935 -2.16518 -0.0642563 -8.89002e-024 -1.18485e-023 -1.48106e-024 -3.39844 1.35642 0.0640283 -3.18788e-007 0.782166 -0.000588827 3.39931 -2.13858 0.0634662 1.1399e-023 0 -0 
24.1659 44.0203 9.21758 -55.7727 37.952 -112.704 0.00329676 -1.47674 -0.0664518 0.00488626 -2.95347 -0.132875 0.00488256 -2.95349 -0.132883 -0.0204734 10.3608 -0.025062 0.000400124 0.125671 -0.180081 -5.79651 0.00130437 0.261943 -39.1898 40.7251 1.96399 6.9891 25.7993 -15.7344 -5.2421 0.0434257 0.0319108 -8.93111e-007 7.96301e-007 1.60957e-007 8.44706e-007 4.84053e-008 -7.32486e-008 -8.93111e-007 7.96301e-007 1.60957e-007 -8.93111e-007 7.96301e-007 1.60957e-007 -0.0146064 -8.89071e-005 -4.62828e-007 -8.93109e-007 7.9628e-007 1.61059e-007 -8.93111e-007 7.96301e-007 1.60957e-007 -0.0187256 -0.00117447 5.84246e-005 -1.20178e-006 1.11459e-006 1.49712e-007 -8.93111e-007 7.96301e-007 1.60957e-007 -0.0122648 -0.00324723 0.000674552 -8.931e-007 7.96289e-007 1.61067e-007 -8.93111e-007 7.96301e-007 1.60957e-007 8.44706e-007 4.84053e-008 -7.32486e-008 -8.93111e-007 7.96301e-007 1.60957e-007 5.78469 0.00373674 -0.269222 39.1971 40.7239 -1.9647 -6.99345 25.7985 15.7309 5.2404 0.0435156 -0.0322887 -3.23081e-007 -2.72614e-007 5.90746e-008 -1.61541e-007 -1.36307e-007 2.95373e-008 -4.84622e-007 -4.08922e-007 8.86119e-008 -3.23081e-007 -2.72614e-007 5.90746e-008 0.014967 -9.09157e-005 1.19633e-006 -4.8462e-007 -4.0891e-007 8.86657e-008 -3.23081e-007 -2.72614e-007 5.90746e-008 0.0190044 -0.00119047 -4.68292e-005 -3.88907e-007 2.21881e-007 3.63949e-006 -3.23081e-007 -2.72614e-007 5.90746e-008 0.0122299 -0.00323811 -0.00067305 -4.84616e-007 -4.08915e-007 8.86692e-008 -3.23081e-007 -2.72614e-007 5.90746e-008 -1.61541e-007 -1.36307e-007 2.95373e-008 -4.84622e-007 -4.08922e-007 8.86119e-008 3.84824 -68.9209 -18.6208 3.30003 18.3278 29.5887 -15.9916 3.81003 -6.16003 -4.91506e-006 -2.6926e-007 6.25457e-006 -0.179513 -69.0622 22.6114 -3.44183 18.0724 -29.5674 14.6952 3.54636 5.77761 -2.92842e-006 1.60253e-007 1.78041e-006 
44.3014 33.7108 13.9002 100.903 76.4371 79.394 0.00620061 -1.99929 -0.0962499 0.00904005 -3.99854 -0.192453 0.00904067 -3.99853 -0.192453 0.0648438 15.0587 0.0891611 0.000830205 0.182078 -0.26089 -9.05539 -0.159539 0.0949406 -57.8591 59.0056 4.1174 15.4478 35.8924 -25.2487 -7.3211 -0.151758 -0.11196 -3.33731e-007 -4.0937e-007 -1.48686e-007 3.18055e-015 -9.93923e-015 -5.96354e-016 3.18055e-015 -1.14301e-014 3.97569e-016 -3.33731e-007 -4.0937e-007 -1.48686e-007 -0.0146446 -9.04443e-005 -1.30728e-005 1.59028e-015 -1.44119e-015 -0 -3.33731e-007 -4.0937e-007 -1.48686e-007 -0.0187834 -0.00117565 6.41217e-005 -3.18055e-015 1.2424e-015 -1.98785e-016 -3.33731e-007 -4.0937e-007 -1.48686e-007 -0.012279 -0.00325195 0.000672586 -1.59028e-015 3.18055e-015 -5.96354e-016 -3.33731e-007 -4.0937e-007 -1.48686e-007 3.18055e-015 -9.93923e-015 -5.96354e-016 3.18055e-015 -1.14301e-014 3.97569e-016 9.08398 -0.169025 -0.0823594 57.8177 59.0038 -4.11937 -15.4452 35.8928 25.2517 7.3142 -0.15205 0.113319 4.18943e-007 3.87867e-007 -1.59857e-006 -1.89709e-007 -3.1762e-008 1.65126e-006 4.18943e-007 3.87867e-007 -1.59857e-006 4.18943e-007 3.87867e-007 -1.59857e-006 0.0150076 -9.23004e-005 6.11479e-006 1.14618e-007 1.78056e-007 2.63253e-008 4.18943e-007 3.87867e-007 -1.59857e-006 0.0190645 -0.00119467 -5.55998e-005 -1.87149e-007 -3.16467e-008 1.65126e-006 4.18943e-007 3.87867e-007 -1.59857e-006 0.0122995 -0.00325494 -0.000679778 1.14617e-007 1.78056e-007 2.63263e-008 4.18943e-007 3.87867e-007 -1.59857e-006 -1.89709e-007 -3.1762e-008 1.65126e-006 4.18943e-007 3.87867e-007 -1.59857e-006 -111.943 -73.2505 -140.108 -1.05756 24.4167 44.5615 -21.8685 5.53198 -8.9525 2.40619e-006 2.20469e-006 -5.59102e-006 109.032 -71.4619 137.04 0.76166 23.9884 -44.4948 19.993 5.27704 8.40378 1.80249e-006 -2.10608e-006 -1.0308e-006 
39.7516 36.054 12.2553 -0.101411 86.6159 -179.898 0.00458422 -1.56744 -0.0897129 0.00671594 -3.1349 -0.179401 0.00671593 -3.13491 -0.179401 0.256789 14.0939 0.342024 0.000715904 0.169198 -0.242439 -9.78199 -0.480407 -0.502995 -51.9569 54.9424 3.29505 12.7974 33.924 -22.1761 -6.24002 -0.58627 -0.43086 -1.59028e-015 0 6.36111e-015 -1.59028e-015 3.97569e-016 6.36111e-015 -1.59028e-015 3.97569e-016 6.36111e-015 -1.59028e-015 0 6.36111e-015 -0.0145987 -8.84569e-005 2.25732e-006 -2.38542e-015 3.18055e-015 -0 -1.59028e-015 0 6.36111e-015 -0.0188107 -0.00117891 6.10626e-005 -7.95139e-016 2.78299e-015 6.36111e-015 -1.59028e-015 0 6.36111e-015 -0.0122492 -0.00324191 0.000676804 5.56597e-015 2.34566e-014 -3.18055e-015 -1.59028e-015 0 6.36111e-015 -1.59028e-015 3.97569e-016 6.36111e-015 -1.59028e-015 3.97569e-016 6.36111e-015 9.90396 -0.515677 0.562785 51.8093 54.9406 -3.29776 -12.7781 33.9268 22.1961 6.22439 -0.58741 0.43609 -4.33385e-009 5.1813e-007 -4.09645e-006 -2.61082e-007 3.3545e-007 -5.43654e-006 -4.33386e-009 5.1813e-007 -4.09645e-006 -4.33385e-009 5.1813e-007 -4.09645e-006 0.0149878 -9.11075e-005 -3.15172e-006 -5.05093e-009 5.17598e-007 -4.09652e-006 -4.33385e-009 5.1813e-007 -4.09645e-006 0.0189973 -0.00119105 -6.3727e-005 -5.28147e-009 5.17507e-007 -4.09653e-006 -4.33385e-009 5.1813e-007 -4.09645e-006 0.0122066 -0.00322983 -0.000684049 -5.03376e-009 5.17847e-007 -4.09647e-006 -4.33385e-009 5.1813e-007 -4.09645e-006 -2.61082e-007 3.3545e-007 -5.43654e-006 -4.33386e-009 5.1813e-007 -4.09645e-006 -91.5898 -78.72 -118.758 0.19641 23.5391 41.1533 -20.5057 4.97624 -8.28435 9.972e-007 1.21181e-006 4.48653e-007 91.1833 -76.9531 118.272 -0.437696 23.1712 -41.096 18.795 4.90389 7.8181 9.13062e-008 -7.36189e-008 -4.09634e-007 
